# xmcd
#
# Track frame offsets:
#	215
#	20225
#	38120
#	52142
#	82240
#	98802
#	112775
#	123410
#	144555
#	162680
#	184852
#	197345
#	212767
#	231647
#	250615
#	276677
#	291375
#	311617
#
# Disc length: 4379 seconds
#
# Revision: 0
# Processed by: cddbd v1.5.2PL0 Copyright (c) Steve Scherf et al.
# Submitted via: audiograbber 1.83.01
#
DISCID=1c111912
DTITLE=World In a Fantasy Style - Fantasy Collection vol.2
DYEAR=1997
DGENRE=Blues
TTITLE0=Queen - The Show Must Go On
TTITLE1=J.Lennon - (Just like) Starting Over
TTITLE2=Shocking  blue - Venus
TTITLE3=Rolling Stones - Time Waits For No One
TTITLE4=Sailor - Romance
TTITLE5=Sparks - This Town Ain't Be Enough For Both Of Us
TTITLE6=Madness - One Step Beyond
TTITLE7=P.McCartney and Wings - Mrs Vandebilt
TTITLE8=S.Harley and Cockney Rebel - Make Me Smile (Come up and see me)
TTITLE9=Santana - Flor d'Luna (Moonfower)
TTITLE10=Family - Larf And Sing
TTITLE11=Curved Air - Melinda (More Or Less)
TTITLE12=Alphaville - Jerusalem
TTITLE13=America - A Horse With No Name
TTITLE14=Moody blues - Melancholy Man
TTITLE15=D.Roussos and Aphrodite's Child - End Of The World
TTITLE16=J.M. de France - Adagio
TTITLE17=Three Dog Night - The Show Must Go On
EXTD=
EXTT0=
EXTT1=
EXTT2=
EXTT3=
EXTT4=
EXTT5=
EXTT6=
EXTT7=
EXTT8=
EXTT9=
EXTT10=
EXTT11=
EXTT12=
EXTT13=
EXTT14=
EXTT15=
EXTT16=
EXTT17=
PLAYORDER=
